<?xml version="1.0" encoding="UTF-8"?>
<svg xmlns="http://www.w3.org/2000/svg" xmlns:xlink="http://www.w3.org/1999/xlink" width="126px" height="42px" viewBox="0 0 126 42" version="1.1">
<g id="surface1">
<path style=" stroke:none;fill-rule:nonzero;fill:rgb(17.647059%,30.980392%,61.960784%);fill-opacity:1;" d="M 125.921875 10 C 124.207031 0.121094 94.648438 -2.960938 59.898438 3.113281 C 45.304688 5.667969 32.125 9.429688 21.863281 13.667969 C 23.441406 13.703125 24.609375 14.066406 25.320312 14.777344 C 25.875 15.335938 26.15625 16.101562 26.15625 17.054688 L 26.15625 18.035156 L 22.746094 18.035156 L 22.746094 17.167969 C 22.746094 16.449219 22.316406 16 21.554688 16 C 20.914062 16 20.519531 16.292969 20.390625 16.863281 C 20.347656 17.089844 20.355469 17.324219 20.40625 17.546875 C 20.769531 19.042969 25.832031 19.972656 26.378906 22.734375 C 26.453125 23.089844 26.550781 23.851562 26.394531 24.9375 C 26.082031 27.167969 24.132812 28.027344 21.648438 28.027344 C 18.1875 28.027344 16.78125 26.378906 16.78125 24.109375 L 16.78125 23.035156 L 20.433594 23.035156 L 20.4375 24.371094 C 20.4375 25.125 20.980469 25.539062 21.722656 25.539062 C 22.425781 25.539062 22.835938 25.253906 22.980469 24.675781 C 23.042969 24.40625 23.074219 24.011719 22.953125 23.710938 C 22.277344 22.007812 17.554688 21.214844 16.972656 18.460938 C 16.839844 17.84375 16.832031 17.316406 16.9375 16.648438 C 16.992188 16.320312 17.097656 16 17.242188 15.699219 C 5.859375 21.042969 -0.800781 26.925781 0.078125 32.003906 C 1.792969 41.878906 31.351562 44.960938 66.101562 38.886719 C 81.378906 36.214844 95.113281 32.21875 105.5625 27.738281 C 105.414062 27.746094 105.265625 27.765625 105.109375 27.765625 C 102.730469 27.765625 100.605469 26.871094 100.386719 24.429688 C 100.347656 23.984375 100.339844 23.796875 100.339844 23.546875 L 100.339844 17.933594 C 100.339844 17.691406 100.367188 17.265625 100.394531 17.046875 C 100.675781 14.6875 102.535156 13.714844 105.109375 13.714844 C 107.101562 13.714844 109.546875 14.289062 109.8125 17.050781 C 109.847656 17.394531 109.847656 17.765625 109.84375 17.886719 L 109.84375 18.417969 L 106.402344 18.417969 L 106.402344 17.625 C 106.402344 17.609375 106.398438 17.3125 106.359375 17.128906 C 106.304688 16.847656 106.066406 16.195312 105.085938 16.195312 C 104.117188 16.195312 103.867188 16.847656 103.804688 17.128906 C 103.765625 17.285156 103.75 17.507812 103.75 17.753906 L 103.75 23.851562 C 103.746094 24.0625 103.757812 24.226562 103.777344 24.351562 C 103.796875 24.445312 103.96875 25.285156 105.097656 25.285156 C 106.214844 25.285156 106.390625 24.445312 106.40625 24.351562 C 106.433594 24.183594 106.4375 23.988281 106.4375 23.851562 L 106.4375 21.960938 L 105.082031 21.960938 L 105.082031 19.925781 L 109.871094 19.925781 L 109.871094 23.546875 C 109.871094 23.792969 109.867188 23.976562 109.824219 24.429688 C 109.765625 25.070312 109.566406 25.609375 109.25 26.074219 C 120.335938 20.789062 126.789062 15.003906 125.921875 10 Z M 35.8125 27.503906 L 34.070312 15.609375 L 34.007812 15.609375 L 32.21875 27.503906 L 28.542969 27.503906 L 31.015625 14.074219 L 37.011719 14.074219 L 39.464844 27.503906 Z M 53.484375 27.503906 L 53.40625 15.839844 L 53.34375 15.839844 L 51.183594 27.503906 L 47.734375 27.503906 L 45.582031 15.839844 L 45.523438 15.839844 L 45.445312 27.503906 L 42.027344 27.503906 L 42.324219 14.074219 L 47.820312 14.074219 L 49.417969 24.050781 L 49.496094 24.050781 L 51.101562 14.074219 L 56.597656 14.074219 L 56.890625 27.503906 Z M 69.578125 24.902344 C 69.207031 27.503906 66.671875 27.957031 64.875 27.957031 C 61.898438 27.957031 60.054688 26.679688 60.054688 24.078125 L 60.054688 23.015625 L 63.664062 23.015625 L 63.667969 24.339844 C 63.667969 25.058594 64.171875 25.496094 64.949219 25.496094 C 65.644531 25.496094 66.050781 25.214844 66.191406 24.640625 C 66.257812 24.375 66.285156 23.984375 66.167969 23.6875 C 65.503906 22.019531 60.816406 21.199219 60.246094 18.488281 C 60.117188 17.875 60.105469 17.351562 60.214844 16.695312 C 60.609375 14.238281 62.957031 13.726562 64.847656 13.726562 C 66.539062 13.726562 67.769531 14.097656 68.507812 14.839844 C 69.058594 15.390625 69.335938 16.152344 69.335938 17.097656 L 69.335938 18.066406 L 65.960938 18.066406 L 65.960938 17.210938 C 65.960938 16.476562 65.507812 16.054688 64.78125 16.054688 C 64.136719 16.054688 63.746094 16.34375 63.617188 16.910156 C 63.578125 17.132812 63.582031 17.363281 63.636719 17.585938 C 63.996094 19.074219 69.011719 19.984375 69.5625 22.71875 C 69.632812 23.070312 69.730469 23.816406 69.578125 24.902344 Z M 82.074219 23.679688 C 82.082031 23.933594 82.054688 24.4375 82.042969 24.566406 C 81.835938 26.777344 80.261719 27.902344 77.371094 27.902344 C 74.46875 27.902344 72.890625 26.777344 72.683594 24.566406 C 72.660156 24.273438 72.652344 23.976562 72.652344 23.683594 L 72.652344 14.070312 L 76.105469 14.070312 L 76.105469 23.988281 C 76.101562 24.207031 76.113281 24.371094 76.132812 24.488281 C 76.175781 24.707031 76.394531 25.421875 77.371094 25.421875 C 78.339844 25.421875 78.558594 24.707031 78.605469 24.488281 C 78.625 24.371094 78.636719 24.199219 78.636719 23.984375 L 78.636719 14.070312 L 82.074219 14.070312 Z M 96.953125 27.367188 L 92.148438 27.367188 L 88.921875 16.730469 L 88.867188 16.730469 L 89.046875 27.367188 L 85.699219 27.367188 L 85.699219 14.074219 L 90.703125 14.074219 L 93.6875 24.292969 L 93.753906 24.292969 L 93.578125 14.074219 L 96.953125 14.074219 Z M 96.953125 27.367188 "/>
</g>
</svg>
